<?xml version="1.0" encoding="UTF-8"?> <svg xmlns="http://www.w3.org/2000/svg" viewBox="0 0 388.41 354.66"> <defs> <style>.cls-1{fill:#f286de;}</style> </defs> <g id="Слой_2" data-name="Слой 2"> <g id="Capa_1" data-name="Capa 1"> <path class="cls-1" d="M152,354.66c-83.8,0-152-68.19-152-152V143.57a8.44,8.44,0,0,1,8.44-8.44H295.53a8.44,8.44,0,0,1,8.44,8.44v59.11C304,286.47,235.78,354.66,152,354.66ZM16.89,152v50.67c0,74.49,60.61,135.09,135.1,135.09s135.1-60.6,135.1-135.09V152Z"></path> <path class="cls-1" d="M329.31,287.11H273.73a8.45,8.45,0,0,1,0-16.89h55.58a42.22,42.22,0,0,0,0-84.43H295.53a8.45,8.45,0,0,1,0-16.89h33.78a59.11,59.11,0,0,1,0,118.21Z"></path> <path class="cls-1" d="M102.9,101.35a8.44,8.44,0,0,1-5-15.28c5.3-3.85,8-8.67,7.57-13.56-.49-5.58-4.9-10.76-12.08-14.22C80.76,52.19,72.9,42,71.87,30.36,70.91,19.46,76.2,9,86.38,1.63a8.44,8.44,0,1,1,9.9,13.68c-5.32,3.85-8,8.66-7.59,13.56.49,5.57,4.9,10.76,12.08,14.22,12.66,6.09,20.52,16.28,21.55,27.93,1,10.91-4.33,21.38-14.49,28.74a8.46,8.46,0,0,1-4.93,1.59Z"></path> <path class="cls-1" d="M183.11,101.35a8.44,8.44,0,0,1-5-15.28c5.3-3.85,8-8.67,7.56-13.56-.49-5.58-4.9-10.76-12.07-14.22C161,52.19,153.12,42,152.09,30.36c-1-10.91,4.32-21.38,14.49-28.75a8.44,8.44,0,1,1,9.89,13.68c-5.3,3.85-8,8.67-7.56,13.56.49,5.58,4.9,10.76,12.07,14.22,12.67,6.1,20.52,16.28,21.55,27.93,1,10.91-4.32,21.38-14.49,28.75A8.36,8.36,0,0,1,183.11,101.35Z"></path> </g> </g> </svg> 